<svg xmlns="http://www.w3.org/2000/svg" baseProfile="tiny" width="575" height="150" viewBox="0 0 575 150"><g fill="#007AFF"><path d="M458.74 37.905l-5.98 1.32-1.848 5.84 4.134 4.518 5.98-1.317 1.847-5.84-4.133-4.52zm-1.847 8.27c-1.343 0-2.43-1.088-2.43-2.43s1.087-2.43 2.43-2.43 2.43 1.088 2.43 2.43-1.088 2.43-2.43 2.43zM463.916 54.93l-2.727-.976-2.21 1.87.516 2.85 2.726.98 2.21-1.873-.516-2.85zm-2.822 2.845c-.538-.34-.698-1.048-.36-1.585.34-.537 1.046-.7 1.584-.36.537.34.7 1.048.36 1.584-.34.538-1.046.7-1.584.36zM448.168 50.993l-3.163 2.104.243 3.792 3.402 1.684 3.162-2.104-.24-3.79-3.404-1.687zm.786 5.196c-.774.3-1.65-.086-1.952-.862-.3-.775.087-1.647.86-1.95.78-.3 1.65.084 1.953.86.3.778-.083 1.653-.86 1.95zM7 111V64h25.182c8.93 0 13.5 5.87 13.5 12.127 0 5.838-3.655 9.934-8.086 10.847 5.063.772 9 5.543 9 11.382 0 7.103-4.64 12.644-13.64 12.644H7zm28.486-33c0-2.884-2.11-5-5.485-5H17v10h13c3.377 0 5.486-1.977 5.486-5zm.914 19c0-2.953-2.11-5-5.977-5H17v10h13.424c3.727 0 5.976-1.624 5.976-5zM55 111V64h10v47H55zM88 111V73H74v-9h37v9H98v38H88zM161 111V77.43L147.423 111h-4.36L130 77.43V111h-10V64h13.85l11.394 29.324L156.634 64H171v47h-10zM216.66 111l-2.954-8h-20.112l-2.953 8h-11.32l18.074-47h12.516l18.072 47H216.66zm-13.01-36.183L196.336 95h14.63l-7.316-20.183zM264.448 111L250.45 92.28 247 96.837V111h-10V64h10v21.233L263.183 64h12.306l-18.635 22.058 19.9 24.942h-12.307zM285 111V64h34v9h-24v10h23v9h-23v10h24v9h-34zM353.698 111l-9.21-16H337v16h-10V64h22.13c9.772 0 15.82 6.575 15.82 15.293 0 8.227-5.274 12.688-10.34 13.884L365.23 111h-11.532zm.984-31.57c0-3.868-3.024-6.43-6.96-6.43H337v13h10.72c3.937 0 6.962-2.562 6.962-6.57zM396 111V64h10v38h20v9h-30zM484 111V64h24.59c8.932 0 13.502 5.87 13.502 12.127 0 5.838-3.657 9.934-8.085 10.847 5.06.772 9 5.543 9 11.382 0 7.103-4.64 12.644-13.64 12.644H484zm27.896-33c0-2.884-2.108-5-5.482-5H494v10h12.413c3.374 0 5.483-1.977 5.483-5zm.916 19c0-2.953-2.112-5-5.98-5H494v10h12.833c3.73 0 5.98-1.624 5.98-5zM528.755 104.642l5.486-7.806c3.305 3.447 8.437 6.4 14.905 6.4 5.557 0 8.16-2.464 8.16-5.205 0-8.155-27.006-2.46-27.006-20.11 0-7.804 6.752-14.274 17.79-14.274 7.457 0 13.644 2.25 18.284 6.54l-5.554 7.453c-3.8-3.515-8.86-5.133-13.644-5.133-4.218 0-6.608 1.827-6.608 4.64 0 7.383 26.93 2.392 26.93 19.9 0 8.58-6.187 15.048-18.774 15.048-9.072 0-15.54-3.023-19.97-7.453zM444.64 101.783c.056.014.14.217.262.217h21.082c.123 0 .208-.203.26-.217-.012-.04-.035-.358-.08-.432L461.03 94h-11.172l-5.14 7.352c-.04.073-.066.39-.08.43z"/><path d="M477.804 98.68l.146-.088L466 81.81V70h.22c1.487 0 2.696-1.514 2.696-3s-1.21-3-2.695-3h-21.555c-1.487 0-2.696 1.512-2.696 3s1.208 3 2.695 3H445v11.807L433.053 98.51l-.04.17c-1.718 2.703-1.858 5.736-.44 8.318 1.42 2.584 4.22 4.002 7.422 4.002h30.894c3.204 0 5.965-1.418 7.385-4.002 1.42-2.582 1.243-5.615-.47-8.32zm-5.338 5.44c-.315.57-1.03.88-1.577.88h-30.895c-.547 0-1.263-.31-1.576-.88-.3-.543-.017-1.27.257-1.724L452 83.954V71h7v12.954l13.266 18.442c.273.456.497 1.18.2 1.724z"/></g></svg>